<svg xmlns="http://www.w3.org/2000/svg" width="416.344" height="86.692" viewBox="0 0 416.344 86.692"><defs><style>.a{fill:#00adee;}.b{fill:#1877f9;}</style></defs><g transform="translate(-129.82 -129.82)"><path class="a" d="M173.054,129.82a43.344,43.344,0,0,0-43.234,43.344v4.728C153.624,174.306,171.5,154.355,173.054,129.82Z" transform="translate(0 0)"/><path class="a" d="M129.82,256.619v27.788a43.348,43.348,0,0,0,43.348-43.348V231.75A64.714,64.714,0,0,1,129.82,256.619Z" transform="translate(0 -67.895)"/><path class="b" d="M341.664,177.892v-4.728A43.344,43.344,0,0,0,298.43,129.82C299.982,154.355,317.86,174.306,341.664,177.892Z" transform="translate(-112.31)"/><path class="b" d="M298.09,231.75v9.309a43.348,43.348,0,0,0,43.348,43.348V256.619A64.714,64.714,0,0,1,298.09,231.75Z" transform="translate(-112.084 -67.895)"/><path d="M911.236,154.954l-7.513,8.558c-5.232-4.284-10.131-6.291-16.094-6.291-6.488,0-11.2,2.932-11.2,8.578,0,5.232,2.825,7.533,14.859,11.3,12.658,3.98,21.447,9.209,21.447,22.816,0,12.966-10.151,22.175-27.41,22.175-11.51,0-20.275-3.893-26.238-9.757l7.55-8.384A26.505,26.505,0,0,0,885,210.606c7.743,0,13.283-2.962,13.283-9.964,0-6.074-3.032-8.792-14.331-12.241-15.169-4.711-21.764-10.778-21.764-21.767,0-12.021,10.351-19.984,24.592-19.984C897.356,146.65,904.959,149.2,911.236,154.954Z" transform="translate(-485.762 -11.21)"/><path d="M1099.873,165.447h-5.242l-.985,3.673h-3.135l4.922-15.82h3.733l4.9,15.82h-3.205Zm-.594-2.291-2.037-7.553-2,7.553Z" transform="translate(-639.91 -15.64)"/><path d="M1152.027,167.031V175.8H1149.1v-8.311c0-1.513-.594-1.947-1.336-1.947-1,0-1.626.711-2.287,1.833V175.8h-2.932v-8.311c0-1.513-.618-1.947-1.336-1.947-1.028,0-1.649.711-2.311,1.833V175.8H1136V163.689h2.541l.23,1.579a4.11,4.11,0,0,1,3.5-1.923,2.949,2.949,0,0,1,2.928,2.037,4.312,4.312,0,0,1,3.643-2.037C1150.752,163.345,1152.027,164.741,1152.027,167.031Z" transform="translate(-670.211 -22.329)"/><path d="M1202.3,170.646h-7.6c.23,2.474,1.372,3.276,2.975,3.276a4.879,4.879,0,0,0,3.005-1.079l1.215,1.67a6.972,6.972,0,0,1-4.488,1.626c-3.756,0-5.77-2.5-5.77-6.321,0-3.673,1.947-6.478,5.379-6.478s5.343,2.291,5.343,6.114C1202.372,169.844,1202.325,170.325,1202.3,170.646Zm-2.838-2.037c0-2-.711-3.182-2.357-3.182-1.372,0-2.244.915-2.4,3.319h4.761Z" transform="translate(-707.272 -22.327)"/><path d="M1238.679,163.58l-.5,2.838a4.007,4.007,0,0,0-1.078-.137c-1.463,0-2.221,1.075-2.671,3.112v6.458H1231.5V163.74h2.541l.274,2.381c.571-1.74,1.74-2.7,3.159-2.7a4.221,4.221,0,0,1,1.206.16Z" transform="translate(-733.823 -22.38)"/><path d="M1260.908,147.781a1.843,1.843,0,1,1-1.853-1.786,1.756,1.756,0,0,1,1.853,1.786Zm-.367,16.462h-2.928V152.132h2.928Z" transform="translate(-750.956 -10.772)"/><path d="M1284.863,164.762l-1.306,1.763a3.873,3.873,0,0,0-2.451-.872c-1.693,0-2.725,1.239-2.725,4.147s1.079,3.957,2.725,3.957a4.189,4.189,0,0,0,2.451-.868l1.306,1.853a5.971,5.971,0,0,1-3.917,1.4c-3.5,0-5.676-2.428-5.676-6.3s2.174-6.5,5.653-6.5A5.643,5.643,0,0,1,1284.863,164.762Z" transform="translate(-762.977 -22.327)"/><path d="M1317.762,174.135l-.618,1.947a2.728,2.728,0,0,1-2.671-1.763,4.167,4.167,0,0,1-3.64,1.81,3.592,3.592,0,0,1-3.893-3.733c0-2.631,1.967-4.05,5.493-4.05h1.536v-.688c0-1.579-.711-2.107-2.267-2.107a11.135,11.135,0,0,0-3.229.641l-.668-2a12.521,12.521,0,0,1,4.374-.868c3.249,0,4.675,1.489,4.675,4.167v5.082C1316.847,173.564,1317.167,173.9,1317.762,174.135Zm-3.79-1.626v-2.448h-1.215c-1.9,0-2.838.684-2.838,2.1a1.6,1.6,0,0,0,1.716,1.833A2.637,2.637,0,0,0,1313.972,172.509Z" transform="translate(-784.073 -22.314)"/><path d="M1356.98,167.036V175.8h-2.932v-8.311c0-1.513-.571-1.947-1.486-1.947-1.055,0-1.833.711-2.544,1.833V175.8h-2.928V163.694h2.541l.227,1.579a4.522,4.522,0,0,1,3.673-1.923C1355.718,163.35,1356.98,164.726,1356.98,167.036Z" transform="translate(-810.816 -22.334)"/><path d="M1103.1,237.934h-4.12v13.413h-3.045V237.934h-4.257v-2.4h11.744Z" transform="translate(-640.689 -70.413)"/><path d="M1142.27,239.751v8.765h-2.932V240.2c0-1.513-.594-1.947-1.486-1.947a3.178,3.178,0,0,0-2.541,1.81v8.451h-2.932V231.577l2.932-.3v6.585a4.363,4.363,0,0,1,3.523-1.786C1140.971,236.065,1142.27,237.461,1142.27,239.751Z" transform="translate(-667.799 -67.582)"/><path d="M1181.02,251.994c0,3.827-2.127,6.411-5.7,6.411s-5.7-2.427-5.7-6.411c0-3.8,2.127-6.384,5.723-6.384S1181.02,248.038,1181.02,251.994Zm-8.311,0c0,2.908.895,4.191,2.611,4.191s2.611-1.306,2.611-4.191-.895-4.164-2.588-4.164S1172.709,249.136,1172.709,251.994Z" transform="translate(-692.605 -77.127)"/><path d="M1219.042,245.839l-.5,2.838a3.867,3.867,0,0,0-1.075-.137c-1.466,0-2.22,1.075-2.671,3.112v6.454h-2.932V246h2.541l.274,2.377c.574-1.736,1.743-2.7,3.162-2.7A4.119,4.119,0,0,1,1219.042,245.839Z" transform="translate(-720.74 -77.173)"/><path d="M1245.032,256.425l-.618,1.947a2.723,2.723,0,0,1-2.671-1.763,4.171,4.171,0,0,1-3.64,1.806,3.589,3.589,0,0,1-3.893-3.73c0-2.631,1.967-4.054,5.493-4.054h1.536v-.685c0-1.583-.711-2.107-2.267-2.107a11.136,11.136,0,0,0-3.229.641l-.668-2a12.521,12.521,0,0,1,4.374-.868c3.249,0,4.675,1.486,4.675,4.164v5.085C1244.117,255.841,1244.438,256.185,1245.032,256.425Zm-3.8-1.626v-2.451h-1.215c-1.9,0-2.838.688-2.838,2.107a1.6,1.6,0,0,0,1.716,1.833,2.634,2.634,0,0,0,2.337-1.5Z" transform="translate(-735.628 -77.127)"/><path d="M1281.763,247.022l-1.306,1.763a3.863,3.863,0,0,0-2.451-.871c-1.693,0-2.725,1.239-2.725,4.144s1.075,3.96,2.725,3.96a4.228,4.228,0,0,0,2.451-.868l1.306,1.853a5.974,5.974,0,0,1-3.917,1.4c-3.5,0-5.676-2.428-5.676-6.294s2.174-6.5,5.653-6.5A5.643,5.643,0,0,1,1281.763,247.022Z" transform="translate(-760.913 -77.12)"/><path d="M1309.648,230.041a1.843,1.843,0,1,1-1.853-1.786,1.756,1.756,0,0,1,1.853,1.786Zm-.367,16.458h-2.928V234.392h2.928Z" transform="translate(-783.421 -65.565)"/><path d="M1333.58,247.022l-1.305,1.763a3.847,3.847,0,0,0-2.448-.871c-1.693,0-2.725,1.239-2.725,4.144s1.075,3.96,2.725,3.96a4.211,4.211,0,0,0,2.448-.868L1333.58,257a5.957,5.957,0,0,1-3.913,1.4c-3.5,0-5.676-2.428-5.676-6.294s2.174-6.5,5.653-6.5A5.629,5.629,0,0,1,1333.58,247.022Z" transform="translate(-795.43 -77.12)"/><path d="M1103.24,318.777l-1.486,1.716a5.316,5.316,0,0,0-3.549-1.336c-1.419,0-2.451.641-2.451,1.877,0,1.142.621,1.649,3.252,2.471,2.771.871,4.695,2,4.695,5.009,0,2.838-2.22,4.852-6.01,4.852a7.867,7.867,0,0,1-5.7-2.174l1.556-1.74a6.037,6.037,0,0,0,4.074,1.579c1.7,0,2.908-.825,2.908-2.357,0-1.336-.668-1.923-3.135-2.671-3.319-1.032-4.761-2.361-4.761-4.762,0-2.635,2.267-4.374,5.379-4.374A6.95,6.95,0,0,1,1103.24,318.777Z" transform="translate(-640.896 -124.59)"/><path d="M1143.589,334.258c0,3.823-2.127,6.408-5.7,6.408s-5.7-2.424-5.7-6.408c0-3.8,2.13-6.388,5.723-6.388S1143.589,330.3,1143.589,334.258Zm-8.311,0c0,2.9.895,4.187,2.611,4.187s2.611-1.306,2.611-4.187-.895-4.167-2.588-4.167S1135.279,331.4,1135.279,334.258Z" transform="translate(-667.673 -131.92)"/><path d="M1181.87,329.276l-1.336,1.763a3.873,3.873,0,0,0-2.448-.871c-1.7,0-2.725,1.239-2.725,4.144s1.075,3.96,2.725,3.96a4.211,4.211,0,0,0,2.448-.868l1.336,1.85a5.957,5.957,0,0,1-3.913,1.4c-3.5,0-5.676-2.424-5.676-6.294s2.177-6.5,5.656-6.5a5.636,5.636,0,0,1,3.933,1.422Z" transform="translate(-694.376 -131.907)"/><path d="M1209.708,312.3a1.843,1.843,0,1,1-1.856-1.786,1.76,1.76,0,0,1,1.856,1.786Zm-.367,16.462h-2.932V316.652h2.945Z" transform="translate(-716.852 -120.358)"/><path d="M1234.7,335.166h-7.6c.23,2.474,1.376,3.272,2.978,3.272a4.975,4.975,0,0,0,3.022-1.075l1.212,1.67a6.962,6.962,0,0,1-4.488,1.623c-3.753,0-5.767-2.494-5.767-6.317,0-3.673,1.943-6.478,5.379-6.478s5.342,2.287,5.342,6.114C1234.762,334.364,1234.719,334.845,1234.7,335.166Zm-2.838-2.037c0-2-.711-3.182-2.357-3.182-1.376,0-2.247.915-2.407,3.319h4.765Z" transform="translate(-728.86 -131.913)"/><path d="M1267.655,334.442a5.306,5.306,0,0,1-3.045.915c-2.381-.02-3.64-1.372-3.64-3.96v-6.384h-1.9v-2.107h1.9v-2.671l2.932-.334v3.005h2.825l-.3,2.107h-2.518v6.318c0,1.189.387,1.67,1.282,1.67a2.9,2.9,0,0,0,1.443-.434Z" transform="translate(-752.187 -126.611)"/><path d="M1291.823,341.054a6.5,6.5,0,0,1-6.3,4.945l-.3-2.127c2.4-.367,3.182-1.145,3.87-2.862h-1L1284.25,328.9h3.115L1290,339.064l2.748-10.164h3.005Z" transform="translate(-768.959 -132.606)"/><path d="M551.654,206.925h-27.21l-5.312,16.742H504.8l24.929-72.3h17.056l24.826,72.3H556.956Zm-3.276-10.461L538,163.561l-10.328,32.9Z" transform="translate(-249.772 -14.354)"/><path d="M686.1,151.37v10.986h21.086v61.312H721.1V162.355h21.086V151.37Z" transform="translate(-370.535 -14.354)"/></g></svg>